<?xml version="1.0" encoding="utf-8"?>
<!-- Generator: Adobe Illustrator 24.0.0, SVG Export Plug-In . SVG Version: 6.00 Build 0)  -->
<svg version="1.1" id="Calque_1" xmlns="http://www.w3.org/2000/svg" xmlns:xlink="http://www.w3.org/1999/xlink" x="0px" y="0px"
	 viewBox="0 0 4000 4000" style="enable-background:new 0 0 4000 4000;" xml:space="preserve">
<g>
	<path d="M350,1556h100c55.2,0,100-44.8,100-100V750c0-110.5,89.5-200,200-200h707c55.2,0,100-44.8,100-100V350
		c0-55.2-44.8-100-100-100H750c-276.1,0-500,223.9-500,500v706C250,1511.2,294.8,1556,350,1556z"/>
	<path d="M1457,3450H750c-110.5,0-200-89.5-200-200v-707c0-55.2-44.8-100-100-100H350c-55.2,0-100,44.8-100,100v707
		c0,276.1,223.9,500,500,500h707c55.2,0,100-44.8,100-100v-100C1557,3494.8,1512.2,3450,1457,3450z"/>
	<path d="M3450,3100v150c0,110.5-89.5,200-200,200h-706c-55.2,0-100,44.8-100,100v100c0,55.2,44.8,100,100,100h706
		c276.1,0,500-223.9,500-500v-250h-200C3494.8,3000,3450,3044.8,3450,3100z"/>
	<path d="M3250,250h-706c-55.2,0-100,44.8-100,100v100c0,55.2,44.8,100,100,100h706c110.5,0,200,89.5,200,200v150
		c0,55.2,44.8,100,100,100h200V750C3750,473.9,3526.1,250,3250,250z"/>
	<path d="M3227.1,2089.4c73.7-36.8,73.7-142,0-178.9L2406,1500v350h-850c-55.2,0-100,44.8-100,100v100c0,55.2,44.8,100,100,100h850
		v350L3227.1,2089.4z"/>
	<path d="M3450,1400v1200c0,55.2,44.8,100,100,100h200V1300h-200C3494.8,1300,3450,1344.8,3450,1400z"/>
</g>
</svg>